<svg width="79" height="21" viewBox="0 0 79 21" fill="none" xmlns="http://www.w3.org/2000/svg">
<rect width="79" height="21" rx="10" fill="#2ECC8A" fill-opacity="0.15"/>
<path d="M8.31179 16H6.34304L9.92756 5.81818H12.2045L15.794 16H13.8253L11.1058 7.90625H11.0263L8.31179 16ZM8.37642 12.0078H13.7457V13.4893H8.37642V12.0078ZM17.0556 18.8636V8.36364H18.8255V9.62642H18.9299C19.0227 9.44081 19.1536 9.24361 19.3226 9.0348C19.4917 8.82268 19.7203 8.64205 20.0087 8.4929C20.2971 8.34044 20.665 8.2642 21.1124 8.2642C21.7024 8.2642 22.2343 8.41501 22.7083 8.71662C23.1855 9.01491 23.5634 9.45739 23.8418 10.044C24.1235 10.6274 24.2644 11.3433 24.2644 12.1918C24.2644 13.0303 24.1268 13.7429 23.8517 14.3295C23.5766 14.9162 23.2021 15.3636 22.7282 15.6719C22.2542 15.9801 21.7173 16.1342 21.1174 16.1342C20.6799 16.1342 20.3169 16.0613 20.0286 15.9155C19.7402 15.7696 19.5082 15.594 19.3326 15.3885C19.1602 15.1797 19.026 14.9825 18.9299 14.7969H18.8553V18.8636H17.0556ZM18.8205 12.1818C18.8205 12.6757 18.8901 13.1082 19.0293 13.4794C19.1718 13.8506 19.3757 14.1406 19.6408 14.3494C19.9093 14.5549 20.2341 14.6577 20.6152 14.6577C21.013 14.6577 21.3461 14.5516 21.6145 14.3395C21.883 14.1241 22.0852 13.8307 22.2211 13.4595C22.3603 13.085 22.4299 12.6591 22.4299 12.1818C22.4299 11.7079 22.3619 11.2869 22.226 10.919C22.0901 10.5511 21.888 10.2628 21.6195 10.054C21.351 9.84517 21.0163 9.74077 20.6152 9.74077C20.2308 9.74077 19.9043 9.84186 19.6358 10.044C19.3674 10.2462 19.1635 10.5296 19.0243 10.8942C18.8884 11.2588 18.8205 11.688 18.8205 12.1818ZM25.8056 18.8636V8.36364H27.5755V9.62642H27.6799C27.7727 9.44081 27.9036 9.24361 28.0726 9.0348C28.2417 8.82268 28.4703 8.64205 28.7587 8.4929C29.0471 8.34044 29.415 8.2642 29.8624 8.2642C30.4524 8.2642 30.9843 8.41501 31.4583 8.71662C31.9355 9.01491 32.3134 9.45739 32.5918 10.044C32.8735 10.6274 33.0144 11.3433 33.0144 12.1918C33.0144 13.0303 32.8768 13.7429 32.6017 14.3295C32.3266 14.9162 31.9521 15.3636 31.4782 15.6719C31.0042 15.9801 30.4673 16.1342 29.8674 16.1342C29.4299 16.1342 29.0669 16.0613 28.7786 15.9155C28.4902 15.7696 28.2582 15.594 28.0826 15.3885C27.9102 15.1797 27.776 14.9825 27.6799 14.7969H27.6053V18.8636H25.8056ZM27.5705 12.1818C27.5705 12.6757 27.6401 13.1082 27.7793 13.4794C27.9218 13.8506 28.1257 14.1406 28.3908 14.3494C28.6593 14.5549 28.9841 14.6577 29.3652 14.6577C29.763 14.6577 30.0961 14.5516 30.3645 14.3395C30.633 14.1241 30.8352 13.8307 30.9711 13.4595C31.1103 13.085 31.1799 12.6591 31.1799 12.1818C31.1799 11.7079 31.1119 11.2869 30.976 10.919C30.8401 10.5511 30.638 10.2628 30.3695 10.054C30.101 9.84517 29.7663 9.74077 29.3652 9.74077C28.9808 9.74077 28.6543 9.84186 28.3858 10.044C28.1174 10.2462 27.9135 10.5296 27.7743 10.8942C27.6384 11.2588 27.5705 11.688 27.5705 12.1818ZM34.5556 16V8.36364H36.3006V9.63636H36.3801C36.5194 9.19555 36.758 8.85582 37.0961 8.61719C37.4374 8.37524 37.8269 8.25426 38.2644 8.25426C38.3638 8.25426 38.4748 8.25923 38.5975 8.26918C38.7234 8.2758 38.8278 8.2874 38.9107 8.30398V9.95952C38.8345 9.933 38.7135 9.9098 38.5478 9.88991C38.3854 9.86671 38.2279 9.85511 38.0755 9.85511C37.7473 9.85511 37.4524 9.92637 37.1905 10.0689C36.932 10.2081 36.7282 10.402 36.579 10.6506C36.4299 10.8991 36.3553 11.1858 36.3553 11.5107V16H34.5556ZM43.1229 16.1491C42.3771 16.1491 41.7308 15.9851 41.1839 15.657C40.6371 15.3288 40.2128 14.8698 39.9112 14.2798C39.6129 13.6899 39.4638 13.0005 39.4638 12.2116C39.4638 11.4228 39.6129 10.7318 39.9112 10.1385C40.2128 9.54522 40.6371 9.08452 41.1839 8.75639C41.7308 8.42827 42.3771 8.2642 43.1229 8.2642C43.8686 8.2642 44.5149 8.42827 45.0618 8.75639C45.6087 9.08452 46.0313 9.54522 46.3295 10.1385C46.6312 10.7318 46.782 11.4228 46.782 12.2116C46.782 13.0005 46.6312 13.6899 46.3295 14.2798C46.0313 14.8698 45.6087 15.3288 45.0618 15.657C44.5149 15.9851 43.8686 16.1491 43.1229 16.1491ZM43.1328 14.7074C43.5372 14.7074 43.8752 14.5964 44.147 14.3743C44.4188 14.1489 44.621 13.8473 44.7536 13.4695C44.8894 13.0916 44.9574 12.6707 44.9574 12.2067C44.9574 11.7393 44.8894 11.3168 44.7536 10.9389C44.621 10.5578 44.4188 10.2545 44.147 10.0291C43.8752 9.80374 43.5372 9.69105 43.1328 9.69105C42.7185 9.69105 42.3738 9.80374 42.0987 10.0291C41.8269 10.2545 41.6231 10.5578 41.4872 10.9389C41.3546 11.3168 41.2884 11.7393 41.2884 12.2067C41.2884 12.6707 41.3546 13.0916 41.4872 13.4695C41.6231 13.8473 41.8269 14.1489 42.0987 14.3743C42.3738 14.5964 42.7185 14.7074 43.1328 14.7074ZM54.8707 8.36364L52.1513 16H50.1626L47.4432 8.36364H49.3622L51.1172 14.0362H51.1967L52.9567 8.36364H54.8707ZM59.237 16.1491C58.4714 16.1491 57.8102 15.9901 57.2534 15.6719C56.6999 15.3504 56.274 14.8963 55.9757 14.3097C55.6774 13.7197 55.5282 13.0253 55.5282 12.2266C55.5282 11.4411 55.6774 10.7517 55.9757 10.1584C56.2773 9.56179 56.6982 9.09777 57.2385 8.76633C57.7787 8.43158 58.4134 8.2642 59.1426 8.2642C59.6132 8.2642 60.0574 8.34044 60.475 8.4929C60.8959 8.64205 61.2671 8.87405 61.5886 9.18892C61.9134 9.50379 62.1686 9.90483 62.3542 10.392C62.5398 10.8759 62.6326 11.4527 62.6326 12.1222V12.674H56.3734V11.4609H60.9075C60.9042 11.1162 60.8296 10.8097 60.6838 10.5412C60.5379 10.2694 60.3341 10.0556 60.0723 9.89986C59.8137 9.74408 59.5121 9.66619 59.1674 9.66619C58.7995 9.66619 58.4764 9.75568 58.198 9.93466C57.9196 10.1103 57.7025 10.3423 57.5467 10.6307C57.3942 10.9157 57.3163 11.2289 57.313 11.5703V12.6293C57.313 13.0734 57.3942 13.4545 57.5566 13.7727C57.719 14.0876 57.9461 14.3295 58.2377 14.4986C58.5294 14.6643 58.8708 14.7472 59.2619 14.7472C59.5237 14.7472 59.7607 14.7107 59.9728 14.6378C60.185 14.5616 60.3689 14.4505 60.5247 14.3047C60.6805 14.1589 60.7981 13.9782 60.8777 13.7628L62.5581 13.9517C62.452 14.3958 62.2498 14.7836 61.9515 15.1151C61.6565 15.4432 61.2787 15.6984 60.818 15.8807C60.3573 16.0597 59.8303 16.1491 59.237 16.1491ZM66.989 16.1342C66.3891 16.1342 65.8522 15.9801 65.3782 15.6719C64.9042 15.3636 64.5297 14.9162 64.2546 14.3295C63.9795 13.7429 63.842 13.0303 63.842 12.1918C63.842 11.3433 63.9812 10.6274 64.2596 10.044C64.5413 9.45739 64.9208 9.01491 65.3981 8.71662C65.8754 8.41501 66.4073 8.2642 66.994 8.2642C67.4414 8.2642 67.8093 8.34044 68.0977 8.4929C68.386 8.64205 68.6147 8.82268 68.7837 9.0348C68.9528 9.24361 69.0837 9.44081 69.1765 9.62642H69.2511V5.81818H71.0558V16H69.2859V14.7969H69.1765C69.0837 14.9825 68.9495 15.1797 68.7738 15.3885C68.5981 15.594 68.3661 15.7696 68.0778 15.9155C67.7894 16.0613 67.4265 16.1342 66.989 16.1342ZM67.4911 14.6577C67.8723 14.6577 68.1971 14.5549 68.4656 14.3494C68.734 14.1406 68.9379 13.8506 69.0771 13.4794C69.2163 13.1082 69.2859 12.6757 69.2859 12.1818C69.2859 11.688 69.2163 11.2588 69.0771 10.8942C68.9412 10.5296 68.739 10.2462 68.4705 10.044C68.2054 9.84186 67.8789 9.74077 67.4911 9.74077C67.0901 9.74077 66.7553 9.84517 66.4869 10.054C66.2184 10.2628 66.0162 10.5511 65.8803 10.919C65.7444 11.2869 65.6765 11.7079 65.6765 12.1818C65.6765 12.6591 65.7444 13.085 65.8803 13.4595C66.0195 13.8307 66.2234 14.1241 66.4918 14.3395C66.7636 14.5516 67.0967 14.6577 67.4911 14.6577Z" fill="#2ECC8A"/>
</svg>
