<svg width="24" height="24" viewBox="0 0 24 24" fill="none" xmlns="http://www.w3.org/2000/svg">
<path fill-rule="evenodd" clip-rule="evenodd" d="M2 12C2 12.5523 2.4477 13 3 13H21C21.5523 13 22 12.5523 22 12C22 11.4477 21.5523 11 21 11H3C2.4477 11 2 11.4477 2 12Z" fill="#292D34"/>
<path fill-rule="evenodd" clip-rule="evenodd" d="M2.29292 11.2929C1.90242 11.6834 1.90242 12.3166 2.29292 12.7071L7.29293 17.7071C7.68343 18.0976 8.31662 18.0976 8.70713 17.7071C9.09763 17.3166 9.09763 16.6834 8.70713 16.2929L4.41423 12L8.70712 7.70711C9.09762 7.31658 9.09762 6.68342 8.70712 6.29289C8.31662 5.90237 7.68343 5.90237 7.29293 6.29289L2.29292 11.2929Z" fill="#292D34"/>
</svg>
