<svg width="18" height="20" viewBox="0 0 18 20" fill="none" xmlns="http://www.w3.org/2000/svg">
<path fill-rule="evenodd" clip-rule="evenodd" d="M9.3664 2.06856C9.1309 1.97584 8.869 1.97584 8.6336 2.06856L2.6336 4.43124C2.25131 4.58178 2 4.95083 2 5.3617V9.0021C2 12.3248 3.83074 15.3772 6.76201 16.9418L8.5291 17.8851C8.8234 18.0421 9.1766 18.0421 9.4709 17.885L11.238 16.9418C14.1692 15.3772 15.9999 12.3248 15.9999 9.0021V5.3617C15.9999 4.95083 15.7486 4.58178 15.3663 4.43124L9.3664 2.06856ZM7.9008 0.207651C8.6072 -0.0705191 9.3928 -0.0705191 10.0992 0.207651L16.0991 2.57032C17.246 3.02194 17.9999 4.1291 17.9999 5.3617V9.0021C17.9999 13.0632 15.7624 16.7939 12.1797 18.7062L10.4127 19.6494C9.5298 20.1207 8.4702 20.1207 7.5873 19.6494L5.82023 18.7062C2.23757 16.7939 0 13.0632 0 9.0021V5.3617C0 4.1291 0.75393 3.02194 1.90081 2.57032L7.9008 0.207651Z" fill="#2ECC8A"/>
</svg>
