<svg width="25" height="24" viewBox="0 0 25 24" fill="none" xmlns="http://www.w3.org/2000/svg">
<path d="M2.82812 11.0007C2.82812 9.52732 4.02146 8.33398 5.49479 8.33398H19.4948C20.9681 8.33398 22.1615 9.52732 22.1615 11.0007" stroke="#EBEBEB" stroke-width="2" stroke-linecap="round" stroke-linejoin="round"/>
<path d="M22.1615 12.334H16.8281C16.0921 12.334 15.4948 12.9313 15.4948 13.6673V14.334C15.4948 15.07 14.8975 15.6673 14.1615 15.6673H10.8281C10.0921 15.6673 9.49479 15.07 9.49479 14.334V13.6673C9.49479 12.9313 8.89746 12.334 8.16146 12.334H2.82812" stroke="#EBEBEB" stroke-width="2" stroke-linecap="round" stroke-linejoin="round"/>
<path d="M19.4948 4.33398H5.49479C4.02203 4.33398 2.82812 5.52789 2.82812 7.00065V17.0007C2.82812 18.4734 4.02203 19.6673 5.49479 19.6673H19.4948C20.9676 19.6673 22.1615 18.4734 22.1615 17.0007V7.00065C22.1615 5.52789 20.9676 4.33398 19.4948 4.33398Z" stroke="#EBEBEB" stroke-width="2" stroke-linecap="round" stroke-linejoin="round"/>
</svg>
