<svg width="65" height="20" viewBox="0 0 65 20" fill="none" xmlns="http://www.w3.org/2000/svg">
<path d="M14.25 6.25H7.25C6.14543 6.25 5.25 7.14543 5.25 8.25V15.25C5.25 16.3546 6.14543 17.25 7.25 17.25H14.25C15.3546 17.25 16.25 16.3546 16.25 15.25V8.25C16.25 7.14543 15.3546 6.25 14.25 6.25Z" stroke="#0F0F0F" stroke-width="1.5" stroke-linecap="round" stroke-linejoin="round"/>
<path d="M2.80103 12.998L1.77203 6.074C1.61003 4.981 2.36403 3.964 3.45603 3.802L10.38 2.773C11.313 2.634 12.19 3.163 12.528 4.001" stroke="#0F0F0F" stroke-width="1.5" stroke-linecap="round" stroke-linejoin="round"/>
<path d="M35.3345 7.78977H33.2095C33.1489 7.44129 33.0372 7.13258 32.8743 6.86364C32.7114 6.59091 32.5088 6.35985 32.2663 6.17045C32.0239 5.98106 31.7474 5.83901 31.4368 5.74432C31.13 5.64583 30.7985 5.59659 30.4425 5.59659C29.8099 5.59659 29.2493 5.75568 28.7607 6.07386C28.272 6.38826 27.8894 6.85038 27.6129 7.46023C27.3364 8.06629 27.1982 8.80682 27.1982 9.68182C27.1982 10.572 27.3364 11.322 27.6129 11.9318C27.8932 12.5379 28.2758 12.9962 28.7607 13.3068C29.2493 13.6136 29.808 13.767 30.4368 13.767C30.7853 13.767 31.111 13.7216 31.4141 13.6307C31.7209 13.536 31.9955 13.3977 32.2379 13.2159C32.4841 13.0341 32.6906 12.8106 32.8572 12.5455C33.0277 12.2803 33.1451 11.9773 33.2095 11.6364L35.3345 11.6477C35.255 12.2008 35.0826 12.7197 34.8175 13.2045C34.5561 13.6894 34.2133 14.1174 33.7891 14.4886C33.3648 14.8561 32.8686 15.1439 32.3004 15.3523C31.7322 15.5568 31.1016 15.6591 30.4084 15.6591C29.3857 15.6591 28.4728 15.4223 27.6697 14.9489C26.8667 14.4754 26.2341 13.7917 25.772 12.8977C25.3099 12.0038 25.0788 10.9318 25.0788 9.68182C25.0788 8.42803 25.3118 7.35606 25.7777 6.46591C26.2436 5.57197 26.8781 4.88826 27.6811 4.41477C28.4841 3.94129 29.3932 3.70455 30.4084 3.70455C31.0561 3.70455 31.6584 3.79545 32.2152 3.97727C32.772 4.15909 33.2682 4.42614 33.7038 4.77841C34.1394 5.12689 34.4974 5.55492 34.7777 6.0625C35.0618 6.56629 35.2474 7.14205 35.3345 7.78977ZM40.9808 15.6705C40.1286 15.6705 39.3899 15.483 38.7649 15.108C38.1399 14.733 37.6551 14.2083 37.3104 13.5341C36.9695 12.8598 36.799 12.072 36.799 11.1705C36.799 10.2689 36.9695 9.47917 37.3104 8.80114C37.6551 8.12311 38.1399 7.59659 38.7649 7.22159C39.3899 6.84659 40.1286 6.65909 40.9808 6.65909C41.8331 6.65909 42.5717 6.84659 43.1967 7.22159C43.8217 7.59659 44.3047 8.12311 44.6456 8.80114C44.9903 9.47917 45.1626 10.2689 45.1626 11.1705C45.1626 12.072 44.9903 12.8598 44.6456 13.5341C44.3047 14.2083 43.8217 14.733 43.1967 15.108C42.5717 15.483 41.8331 15.6705 40.9808 15.6705ZM40.9922 14.0227C41.4543 14.0227 41.8407 13.8958 42.1513 13.642C42.4619 13.3845 42.6929 13.0398 42.8445 12.608C42.9998 12.1761 43.0774 11.6951 43.0774 11.1648C43.0774 10.6307 42.9998 10.1477 42.8445 9.71591C42.6929 9.2803 42.4619 8.93371 42.1513 8.67614C41.8407 8.41856 41.4543 8.28977 40.9922 8.28977C40.5187 8.28977 40.1248 8.41856 39.8104 8.67614C39.4998 8.93371 39.2668 9.2803 39.1115 9.71591C38.96 10.1477 38.8842 10.6307 38.8842 11.1648C38.8842 11.6951 38.96 12.1761 39.1115 12.608C39.2668 13.0398 39.4998 13.3845 39.8104 13.642C40.1248 13.8958 40.5187 14.0227 40.9922 14.0227ZM46.9084 18.7727V6.77273H48.9311V8.21591H49.0504C49.1565 8.00379 49.3061 7.77841 49.4993 7.53977C49.6925 7.29735 49.9538 7.09091 50.2834 6.92045C50.6129 6.74621 51.0334 6.65909 51.5447 6.65909C52.219 6.65909 52.8269 6.83144 53.3686 7.17614C53.9141 7.51705 54.3459 8.02273 54.6641 8.69318C54.986 9.35985 55.147 10.178 55.147 11.1477C55.147 12.1061 54.9898 12.9205 54.6754 13.5909C54.361 14.2614 53.933 14.7727 53.3913 15.125C52.8497 15.4773 52.236 15.6534 51.5504 15.6534C51.0504 15.6534 50.6357 15.5701 50.3061 15.4034C49.9766 15.2367 49.7114 15.036 49.5107 14.8011C49.3137 14.5625 49.1603 14.3371 49.0504 14.125H48.9652V18.7727H46.9084ZM48.9254 11.1364C48.9254 11.7008 49.005 12.1951 49.1641 12.6193C49.3269 13.0436 49.5599 13.375 49.8629 13.6136C50.1697 13.8485 50.541 13.9659 50.9766 13.9659C51.4311 13.9659 51.8118 13.8447 52.1186 13.6023C52.4254 13.3561 52.6565 13.0208 52.8118 12.5966C52.9709 12.1686 53.0504 11.6818 53.0504 11.1364C53.0504 10.5947 52.9728 10.1136 52.8175 9.69318C52.6622 9.27273 52.4311 8.94318 52.1243 8.70455C51.8175 8.46591 51.4349 8.34659 50.9766 8.34659C50.5372 8.34659 50.1641 8.46212 49.8572 8.69318C49.5504 8.92424 49.3175 9.24811 49.1584 9.66477C49.0031 10.0814 48.9254 10.572 48.9254 11.1364ZM57.8899 18.7727C57.6096 18.7727 57.3501 18.75 57.1115 18.7045C56.8767 18.6629 56.6892 18.6136 56.549 18.5568L57.0263 16.9545C57.3255 17.0417 57.5926 17.0833 57.8274 17.0795C58.0623 17.0758 58.2687 17.0019 58.4467 16.858C58.6286 16.7178 58.782 16.483 58.907 16.1534L59.0831 15.6818L55.9183 6.77273H58.1001L60.1115 13.3636H60.2024L62.2195 6.77273H64.407L60.9126 16.5568C60.7498 17.0189 60.5339 17.4148 60.2649 17.7443C59.996 18.0777 59.6664 18.3314 59.2763 18.5057C58.8899 18.6837 58.4278 18.7727 57.8899 18.7727Z" fill="#0F0F0F"/>
</svg>
