<svg width="24" height="24" viewBox="0 0 24 24" fill="none" xmlns="http://www.w3.org/2000/svg">
<rect width="24" height="24" rx="4" fill="#C4C4C4"/>
<path d="M11.8846 11.0611C11.4615 11.0611 11.1513 10.6631 11.2546 10.2528L12.9572 3.491C13.0299 3.20233 13.2895 3 13.5871 3H20.3504C20.7092 3 21 3.29085 21 3.64962V10.4115C21 10.7702 20.7092 11.0611 20.3504 11.0611H11.8846Z" fill="#1B1B1C"/>
<path d="M3 10.4115C3 10.7702 3.29085 11.0611 3.64962 11.0611H5.46399C5.67195 11.0611 5.86733 10.9615 5.98956 10.7933L10.9019 4.03144C11.2139 3.60202 10.9071 3 10.3763 3H3.64962C3.29085 3 3 3.29085 3 3.64962V10.4115Z" fill="#1B1B1C"/>
<path d="M8.21678 21C8.51446 21 8.77405 20.7977 8.84674 20.509L10.5493 13.7472C10.6526 13.3369 10.3424 12.9389 9.91935 12.9389H3.64962C3.29085 12.9389 3 13.2298 3 13.5885V20.3504C3 20.7092 3.29085 21 3.64962 21H8.21678Z" fill="#1B1B1C"/>
<path d="M16.1815 13.2067C16.3038 13.0385 16.4992 12.9389 16.7071 12.9389H20.3504C20.7092 12.9389 21 13.2298 21 13.5885V20.3504C21 20.7092 20.7092 21 20.3504 21H11.7948C11.264 21 10.9573 20.398 11.2692 19.9686L16.1815 13.2067Z" fill="#1B1B1C"/>
</svg>
