<svg width="24" height="24" viewBox="0 0 24 24" fill="none" xmlns="http://www.w3.org/2000/svg">
<g clip-path="url(#clip0_2_3541)">
<path d="M3.65615 9.18267C3.29348 9.18267 2.94415 8.98533 2.76681 8.64C2.51481 8.148 2.70815 7.54533 3.19881 7.29333L5.76148 4.84C6.32415 4.29867 7.06281 4 7.84415 4H9.78815C10.7348 4 11.6361 4.45467 12.1988 5.21467L12.5081 5.632C12.8361 6.076 12.7428 6.70267 12.2988 7.03067C11.8561 7.35867 11.2295 7.26667 10.9001 6.82133L10.5921 6.404C10.4041 6.152 10.1041 6 9.78815 6H7.84415C7.58415 6 7.33748 6.1 7.14948 6.28L4.66015 8.68C4.49481 8.83867 4.31215 8.96933 4.11348 9.07067C3.96681 9.14533 3.81081 9.18267 3.65615 9.18267Z" fill="#A0A0A0"/>
<path d="M20.3317 16.6667H16.4584C15.9064 16.6667 15.4584 16.2187 15.4584 15.6667C15.4584 15.1147 15.9064 14.6667 16.4584 14.6667H20.3317C20.8837 14.6667 21.3317 15.1147 21.3317 15.6667C21.3317 16.2187 20.8837 16.6667 20.3317 16.6667Z" fill="#A0A0A0"/>
<path d="M17.1693 11.7893L14.972 8.96C14.6333 8.52267 14.0053 8.444 13.5693 8.784C13.1333 9.12267 13.0547 9.75067 13.3933 10.1867L15.5907 13.016C15.896 13.408 16.008 13.912 15.9013 14.3973C15.7947 14.8827 15.48 15.2907 15.0387 15.52L10.6747 17.776C9.972 18.1413 9.104 17.9533 8.60933 17.3387L7.16533 15.54C6.72 14.9853 6.056 14.668 5.34667 14.668H4.66667V8.33333C4.66667 7.04667 3.62 6 2.33333 6C1.04667 6 0 7.04667 0 8.33333V16.3333C0 17.62 1.04667 18.6667 2.33333 18.6667C3.50533 18.6667 4.46933 17.7947 4.63333 16.6667H5.34667C5.448 16.6667 5.54267 16.712 5.60667 16.792L7.05067 18.5907C7.764 19.48 8.832 19.96 9.91733 19.96C10.4867 19.96 11.0613 19.828 11.5933 19.5533L15.9587 17.296C16.9293 16.7947 17.6213 15.8947 17.856 14.8267C18.0907 13.76 17.84 12.6533 17.1693 11.7893Z" fill="#A0A0A0"/>
<path d="M21.6691 6C21.0584 6 20.5077 6.24133 20.0917 6.62533L18.2397 4.84C17.6771 4.29867 16.9384 4 16.1571 4H13.7477C12.9437 4 12.1611 4.33067 11.6011 4.90533L8.27305 8.316C7.23305 9.38267 7.24372 11.1067 8.29705 12.1613C8.82772 12.6907 9.52639 12.964 10.2317 12.964C10.7784 12.964 11.3277 12.8 11.8024 12.4667L15.5771 9.82C16.0291 9.50267 16.1384 8.87867 15.8224 8.42667C15.5051 7.97467 14.8811 7.86533 14.4291 8.18133L10.6544 10.828C10.3611 11.032 9.96505 10.9987 9.71172 10.7453C9.42905 10.4627 9.42639 9.99733 9.70505 9.712L13.0331 6.30133C13.2197 6.10933 13.4797 6 13.7491 6H16.1584C16.4184 6 16.6651 6.1 16.8531 6.28L19.3371 8.67467V16.3333C19.3371 17.62 20.3837 18.6667 21.6704 18.6667C22.9571 18.6667 24.0037 17.62 24.0037 16.3333V8.33333C24.0037 7.04667 22.9557 6 21.6691 6Z" fill="#A0A0A0"/>
</g>
<defs>
<clipPath id="clip0_2_3541">
<rect width="24" height="24" fill="white"/>
</clipPath>
</defs>
</svg>
