<svg width="24" height="24" viewBox="0 0 24 24" fill="none" xmlns="http://www.w3.org/2000/svg">
<path d="M11.4879 10.7859C10.9408 10.7859 10.5398 10.2713 10.6733 9.74076L12.8748 0.997324C12.9688 0.624053 13.3045 0.362427 13.6894 0.362427H22.4347C22.8986 0.362427 23.2747 0.738508 23.2747 1.20243V9.94586C23.2747 10.4098 22.8986 10.7859 22.4347 10.7859H11.4879Z" fill="#232323"/>
<path d="M-0.000366211 9.94586C-0.000366211 10.4098 0.375714 10.7859 0.839634 10.7859H3.18571C3.45461 10.7859 3.70726 10.6571 3.86531 10.4396L10.2172 1.69614C10.6206 1.14088 10.224 0.362427 9.53764 0.362427H0.839634C0.375715 0.362427 -0.000366211 0.738508 -0.000366211 1.20243V9.94586Z" fill="#232323"/>
<path d="M6.74523 23.6375C7.13015 23.6375 7.46582 23.3758 7.5598 23.0026L9.76132 14.2591C9.8949 13.7286 9.49381 13.214 8.94675 13.214H0.839634C0.375715 13.214 -0.000366211 13.5901 -0.000366211 14.054V22.7975C-0.000366211 23.2614 0.375714 23.6375 0.839633 23.6375H6.74523Z" fill="#232323"/>
<path d="M17.0441 13.5603C17.2022 13.3428 17.4548 13.214 17.7237 13.214H22.4347C22.8986 13.214 23.2747 13.5901 23.2747 14.054V22.7975C23.2747 23.2614 22.8986 23.6375 22.4347 23.6375H11.3718C10.6855 23.6375 10.2888 22.859 10.6922 22.3038L17.0441 13.5603Z" fill="#232323"/>
</svg>
