<svg width="99" height="24" viewBox="0 0 99 24" fill="none" xmlns="http://www.w3.org/2000/svg">
<path d="M83.2271 23.637C82.8277 23.637 82.5736 23.3465 82.6462 22.9471L85.6598 6.0273H80.976C80.5766 6.0273 80.3224 5.73683 80.3951 5.33744L81.1575 1.05302C81.2302 0.653629 81.5569 0.363159 81.9563 0.363159H97.7869C98.1863 0.363159 98.4405 0.653629 98.3678 1.05302L97.6054 5.33744C97.5327 5.73683 97.206 6.0273 96.8066 6.0273H92.1227L89.1091 22.9471C89.0365 23.3465 88.7097 23.637 88.3103 23.637H83.2271Z" fill="#232323"/>
<path d="M67.1206 23.637C66.7212 23.637 66.4671 23.3465 66.5397 22.9471L70.4247 1.05302C70.4973 0.653629 70.8241 0.363159 71.2235 0.363159H76.3067C76.7061 0.363159 76.9603 0.653629 76.8877 1.05302L73.9104 17.9728H80.6638C81.0632 17.9728 81.281 18.2633 81.2084 18.6627L80.4459 22.9471C80.3733 23.3465 80.0465 23.637 79.6471 23.637H67.1206Z" fill="#232323"/>
<path d="M53.8802 24C48.5428 24 43.6411 21.1679 45.275 11.9818C46.9089 2.79576 52.3552 0 57.6926 0C63.0299 0 67.9316 2.79576 66.334 11.9818C64.7365 21.1679 59.2175 24 53.8802 24ZM54.7153 18.0454C56.7486 18.0454 58.8181 17.0651 59.7259 11.9818C60.6336 6.89864 58.8908 5.95461 56.8575 5.95461C54.8242 5.95461 52.7546 6.89864 51.8832 11.9818C51.0118 17.0651 52.682 18.0454 54.7153 18.0454Z" fill="#232323"/>
<path d="M31.6222 23.637C31.2228 23.637 31.0049 23.4917 30.9323 22.9834L27.9913 2.46906C27.8824 1.67027 27.8098 1.34349 27.8824 1.01671C27.955 0.653629 28.2818 0.363159 28.6449 0.363159H33.4739C33.9096 0.363159 34.1638 0.544702 34.2001 0.980406L35.2167 10.4569C35.2893 11.1831 35.5435 13.3979 35.4709 13.761C35.3983 14.0878 35.4709 14.1967 35.6161 14.1967C35.7614 14.1967 35.834 14.0878 35.9066 13.761C35.9792 13.3979 36.9959 11.1831 37.3226 10.4569L41.6797 0.980406C41.8612 0.58101 42.188 0.363159 42.6237 0.363159H47.7432C48.1063 0.363159 48.3605 0.653629 48.2878 1.01671C48.2152 1.34349 48.07 1.67027 47.6706 2.46906L37.4679 22.9834C37.2137 23.4917 36.9595 23.637 36.5601 23.637H31.6222Z" fill="#232323"/>
<path d="M11.4879 10.7859C10.9408 10.7859 10.5398 10.2713 10.6733 9.74076L12.8748 0.997324C12.9688 0.624053 13.3045 0.362427 13.6894 0.362427H22.4347C22.8986 0.362427 23.2747 0.738508 23.2747 1.20243V9.94586C23.2747 10.4098 22.8986 10.7859 22.4347 10.7859H11.4879Z" fill="#232323"/>
<path d="M-0.000366211 9.94586C-0.000366211 10.4098 0.375714 10.7859 0.839634 10.7859H3.18571C3.45461 10.7859 3.70726 10.6571 3.86531 10.4396L10.2172 1.69614C10.6206 1.14088 10.224 0.362427 9.53764 0.362427H0.839634C0.375715 0.362427 -0.000366211 0.738508 -0.000366211 1.20243V9.94586Z" fill="#232323"/>
<path d="M6.74523 23.6375C7.13015 23.6375 7.46582 23.3758 7.5598 23.0026L9.76132 14.2591C9.8949 13.7286 9.49381 13.214 8.94675 13.214H0.839634C0.375715 13.214 -0.000366211 13.5901 -0.000366211 14.054V22.7975C-0.000366211 23.2614 0.375714 23.6375 0.839633 23.6375H6.74523Z" fill="#232323"/>
<path d="M17.0441 13.5603C17.2022 13.3428 17.4548 13.214 17.7237 13.214H22.4347C22.8986 13.214 23.2747 13.5901 23.2747 14.054V22.7975C23.2747 23.2614 22.8986 23.6375 22.4347 23.6375H11.3718C10.6855 23.6375 10.2888 22.859 10.6922 22.3038L17.0441 13.5603Z" fill="#232323"/>
</svg>
