<svg width="68" height="21" viewBox="0 0 68 21" fill="none" xmlns="http://www.w3.org/2000/svg">
<rect width="68" height="21" rx="10" fill="#F6B60B" fill-opacity="0.15"/>
<path d="M7.00426 16V5.81818H10.8224C11.6046 5.81818 12.2609 5.96401 12.7912 6.25568C13.3248 6.54735 13.7275 6.94839 13.9993 7.45881C14.2744 7.96591 14.4119 8.54261 14.4119 9.18892C14.4119 9.84186 14.2744 10.4219 13.9993 10.929C13.7242 11.4361 13.3182 11.8355 12.7812 12.1271C12.2443 12.4155 11.5831 12.5597 10.7976 12.5597H8.26705V11.0433H10.549C11.0064 11.0433 11.3809 10.9638 11.6726 10.8047C11.9643 10.6456 12.1797 10.4268 12.3189 10.1484C12.4614 9.87003 12.5327 9.55019 12.5327 9.18892C12.5327 8.82765 12.4614 8.50947 12.3189 8.23438C12.1797 7.95928 11.9626 7.7455 11.6676 7.59304C11.3759 7.43726 10.9998 7.35938 10.5391 7.35938H8.84872V16H7.00426ZM19.2058 16.1491C18.4402 16.1491 17.7789 15.9901 17.2221 15.6719C16.6686 15.3504 16.2427 14.8963 15.9444 14.3097C15.6461 13.7197 15.497 13.0253 15.497 12.2266C15.497 11.4411 15.6461 10.7517 15.9444 10.1584C16.246 9.56179 16.667 9.09777 17.2072 8.76633C17.7475 8.43158 18.3822 8.2642 19.1113 8.2642C19.582 8.2642 20.0261 8.34044 20.4437 8.4929C20.8646 8.64205 21.2359 8.87405 21.5574 9.18892C21.8822 9.50379 22.1374 9.90483 22.323 10.392C22.5086 10.8759 22.6014 11.4527 22.6014 12.1222V12.674H16.3422V11.4609H20.8762C20.8729 11.1162 20.7984 10.8097 20.6525 10.5412C20.5067 10.2694 20.3029 10.0556 20.041 9.89986C19.7825 9.74408 19.4809 9.66619 19.1362 9.66619C18.7683 9.66619 18.4451 9.75568 18.1667 9.93466C17.8883 10.1103 17.6712 10.3423 17.5154 10.6307C17.363 10.9157 17.2851 11.2289 17.2818 11.5703V12.6293C17.2818 13.0734 17.363 13.4545 17.5254 13.7727C17.6878 14.0876 17.9148 14.3295 18.2065 14.4986C18.4982 14.6643 18.8395 14.7472 19.2306 14.7472C19.4925 14.7472 19.7295 14.7107 19.9416 14.6378C20.1537 14.5616 20.3377 14.4505 20.4934 14.3047C20.6492 14.1589 20.7669 13.9782 20.8464 13.7628L22.5268 13.9517C22.4208 14.3958 22.2186 14.7836 21.9203 15.1151C21.6253 15.4432 21.2475 15.6984 20.7868 15.8807C20.3261 16.0597 19.7991 16.1491 19.2058 16.1491ZM25.9237 11.5256V16H24.1239V8.36364H25.8441V9.66122H25.9336C26.1093 9.23366 26.3893 8.89394 26.7738 8.64205C27.1616 8.39015 27.6405 8.2642 28.2106 8.2642C28.7376 8.2642 29.1966 8.37689 29.5877 8.60227C29.9821 8.82765 30.2871 9.15412 30.5025 9.58168C30.7212 10.0092 30.829 10.5279 30.8256 11.1378V16H29.0259V11.4162C29.0259 10.9058 28.8933 10.5064 28.6282 10.218C28.3664 9.92969 28.0034 9.78551 27.5394 9.78551C27.2246 9.78551 26.9445 9.85511 26.6992 9.99432C26.4573 10.1302 26.2667 10.3274 26.1275 10.5859C25.9916 10.8445 25.9237 11.1577 25.9237 11.5256ZM35.489 16.1342C34.8891 16.1342 34.3522 15.9801 33.8782 15.6719C33.4042 15.3636 33.0297 14.9162 32.7546 14.3295C32.4795 13.7429 32.342 13.0303 32.342 12.1918C32.342 11.3433 32.4812 10.6274 32.7596 10.044C33.0413 9.45739 33.4208 9.01491 33.8981 8.71662C34.3754 8.41501 34.9073 8.2642 35.494 8.2642C35.9414 8.2642 36.3093 8.34044 36.5977 8.4929C36.886 8.64205 37.1147 8.82268 37.2837 9.0348C37.4528 9.24361 37.5837 9.44081 37.6765 9.62642H37.7511V5.81818H39.5558V16H37.7859V14.7969H37.6765C37.5837 14.9825 37.4495 15.1797 37.2738 15.3885C37.0981 15.594 36.8661 15.7696 36.5778 15.9155C36.2894 16.0613 35.9265 16.1342 35.489 16.1342ZM35.9911 14.6577C36.3723 14.6577 36.6971 14.5549 36.9656 14.3494C37.234 14.1406 37.4379 13.8506 37.5771 13.4794C37.7163 13.1082 37.7859 12.6757 37.7859 12.1818C37.7859 11.688 37.7163 11.2588 37.5771 10.8942C37.4412 10.5296 37.239 10.2462 36.9705 10.044C36.7054 9.84186 36.3789 9.74077 35.9911 9.74077C35.5901 9.74077 35.2553 9.84517 34.9869 10.054C34.7184 10.2628 34.5162 10.5511 34.3803 10.919C34.2444 11.2869 34.1765 11.7079 34.1765 12.1818C34.1765 12.6591 34.2444 13.085 34.3803 13.4595C34.5195 13.8307 34.7234 14.1241 34.9918 14.3395C35.2636 14.5516 35.5967 14.6577 35.9911 14.6577ZM41.4735 16V8.36364H43.2733V16H41.4735ZM42.3784 7.27983C42.0933 7.27983 41.8481 7.18537 41.6426 6.99645C41.4371 6.80421 41.3343 6.57386 41.3343 6.3054C41.3343 6.03362 41.4371 5.80327 41.6426 5.61435C41.8481 5.42211 42.0933 5.32599 42.3784 5.32599C42.6667 5.32599 42.912 5.42211 43.1142 5.61435C43.3197 5.80327 43.4224 6.03362 43.4224 6.3054C43.4224 6.57386 43.3197 6.80421 43.1142 6.99645C42.912 7.18537 42.6667 7.27983 42.3784 7.27983ZM46.9237 11.5256V16H45.1239V8.36364H46.8441V9.66122H46.9336C47.1093 9.23366 47.3893 8.89394 47.7738 8.64205C48.1616 8.39015 48.6405 8.2642 49.2106 8.2642C49.7376 8.2642 50.1966 8.37689 50.5877 8.60227C50.9821 8.82765 51.2871 9.15412 51.5025 9.58168C51.7212 10.0092 51.829 10.5279 51.8256 11.1378V16H50.0259V11.4162C50.0259 10.9058 49.8933 10.5064 49.6282 10.218C49.3664 9.92969 49.0034 9.78551 48.5394 9.78551C48.2246 9.78551 47.9445 9.85511 47.6992 9.99432C47.4573 10.1302 47.2667 10.3274 47.1275 10.5859C46.9916 10.8445 46.9237 11.1577 46.9237 11.5256ZM56.9762 19.0227C56.3299 19.0227 55.7747 18.9349 55.3107 18.7592C54.8467 18.5869 54.4738 18.3549 54.1921 18.0632C53.9104 17.7715 53.7148 17.4484 53.6055 17.0938L55.2262 16.701C55.2991 16.8501 55.4052 16.9976 55.5444 17.1435C55.6836 17.2926 55.8709 17.4152 56.1062 17.5114C56.3448 17.6108 56.6448 17.6605 57.006 17.6605C57.5165 17.6605 57.939 17.5362 58.2738 17.2876C58.6085 17.0424 58.7759 16.638 58.7759 16.0746V14.6278H58.6864C58.5936 14.8134 58.4577 15.004 58.2788 15.1996C58.1031 15.3951 57.8694 15.5592 57.5778 15.6918C57.2894 15.8243 56.9265 15.8906 56.489 15.8906C55.9023 15.8906 55.3704 15.7531 54.8931 15.478C54.4192 15.1996 54.0413 14.7853 53.7596 14.2351C53.4812 13.6816 53.342 12.9889 53.342 12.157C53.342 11.3184 53.4812 10.6108 53.7596 10.0341C54.0413 9.45407 54.4208 9.01491 54.8981 8.71662C55.3754 8.41501 55.9073 8.2642 56.494 8.2642C56.9414 8.2642 57.3093 8.34044 57.5977 8.4929C57.8893 8.64205 58.1213 8.82268 58.2937 9.0348C58.466 9.24361 58.5969 9.44081 58.6864 9.62642H58.7859V8.36364H60.5607V16.1243C60.5607 16.7772 60.4049 17.3175 60.0934 17.745C59.7818 18.1726 59.3559 18.4924 58.8157 18.7045C58.2755 18.9167 57.6623 19.0227 56.9762 19.0227ZM56.9911 14.4787C57.3723 14.4787 57.6971 14.3859 57.9656 14.2003C58.234 14.0147 58.4379 13.7479 58.5771 13.3999C58.7163 13.0518 58.7859 12.6342 58.7859 12.147C58.7859 11.6664 58.7163 11.2455 58.5771 10.8842C58.4412 10.523 58.239 10.2429 57.9705 10.044C57.7054 9.84186 57.3789 9.74077 56.9911 9.74077C56.5901 9.74077 56.2553 9.84517 55.9869 10.054C55.7184 10.2628 55.5162 10.5495 55.3803 10.9141C55.2444 11.2753 55.1765 11.6863 55.1765 12.147C55.1765 12.6143 55.2444 13.0237 55.3803 13.375C55.5195 13.723 55.7234 13.9948 55.9918 14.1903C56.2636 14.3826 56.5967 14.4787 56.9911 14.4787Z" fill="#F6B60B"/>
</svg>
