<svg width="18" height="18" viewBox="0 0 18 18" fill="none" xmlns="http://www.w3.org/2000/svg">
<path d="M10.264 8.71999C9.94298 8.20099 9.42898 8.07599 9.02898 8.07599C8.60798 8.07599 7.50298 8.29999 7.60598 9.36099C7.67798 10.106 8.37998 10.383 8.99298 10.492C9.60598 10.601 10.497 10.835 10.519 11.733C10.538 12.492 9.85498 13.01 9.02998 13.01C8.34598 13.01 7.84398 12.78 7.58398 12.266" stroke="#0F0F0F" stroke-width="1.5" stroke-linecap="round" stroke-linejoin="round"/>
<path d="M9 7.25V8.076" stroke="#0F0F0F" stroke-width="1.5" stroke-linecap="round" stroke-linejoin="round"/>
<path d="M9 13.011V13.75" stroke="#0F0F0F" stroke-width="1.5" stroke-linecap="round" stroke-linejoin="round"/>
<path d="M10.75 4.75L12.75 1.75C12.75 1.198 12.302 0.75 11.75 0.75H9H6.25C5.698 0.75 5.25 1.198 5.25 1.75L7.25 4.75H10.75Z" stroke="#0F0F0F" stroke-width="1.5" stroke-linecap="round" stroke-linejoin="round"/>
<path d="M9 4.75V3.25" stroke="#0F0F0F" stroke-width="1.5" stroke-linecap="round" stroke-linejoin="round"/>
<path d="M7.25 4.75C4.859 6.031 3 9.266 3 12C3 15.314 5.686 16.25 9 16.25C12.314 16.25 15 15.314 15 12C15 9.266 13.141 6.031 10.75 4.75" stroke="#0F0F0F" stroke-width="1.5" stroke-linecap="round" stroke-linejoin="round"/>
</svg>
