<svg width="217" height="30" viewBox="0 0 217 30" fill="none" xmlns="http://www.w3.org/2000/svg">
<path d="M107.836 12.9929C107.783 12.5223 107.564 12.1577 107.18 11.8991C106.795 11.6373 106.311 11.5064 105.728 11.5064C105.31 11.5064 104.949 11.5727 104.644 11.7053C104.339 11.8345 104.102 12.0135 103.933 12.2422C103.768 12.4676 103.685 12.7244 103.685 13.0128C103.685 13.2547 103.741 13.4635 103.854 13.6392C103.97 13.8149 104.121 13.9624 104.306 14.0817C104.495 14.1977 104.697 14.2955 104.913 14.375C105.128 14.4512 105.335 14.5142 105.534 14.5639L106.528 14.8224C106.853 14.902 107.186 15.0097 107.528 15.1456C107.869 15.2815 108.186 15.4605 108.477 15.6825C108.769 15.9046 109.004 16.1797 109.183 16.5078C109.366 16.8359 109.457 17.2287 109.457 17.6861C109.457 18.2628 109.308 18.7749 109.009 19.2223C108.714 19.6697 108.285 20.0227 107.722 20.2812C107.161 20.5398 106.484 20.669 105.688 20.669C104.926 20.669 104.266 20.5481 103.71 20.3061C103.153 20.0642 102.717 19.7211 102.402 19.277C102.087 18.8295 101.913 18.2992 101.88 17.6861H103.421C103.451 18.054 103.57 18.3606 103.779 18.6058C103.991 18.8478 104.261 19.0284 104.589 19.1477C104.921 19.2637 105.284 19.3217 105.678 19.3217C106.112 19.3217 106.499 19.2538 106.837 19.1179C107.178 18.9787 107.446 18.7865 107.642 18.5412C107.838 18.2926 107.935 18.0026 107.935 17.6712C107.935 17.3696 107.849 17.1226 107.677 16.9304C107.508 16.7382 107.277 16.5791 106.986 16.4531C106.697 16.3272 106.371 16.2161 106.006 16.12L104.803 15.7919C103.988 15.5698 103.342 15.2434 102.864 14.8125C102.39 14.3816 102.153 13.8116 102.153 13.1023C102.153 12.5156 102.313 12.0036 102.631 11.5661C102.949 11.1286 103.38 10.7888 103.923 10.5469C104.467 10.3016 105.08 10.179 105.763 10.179C106.452 10.179 107.06 10.3 107.587 10.5419C108.118 10.7839 108.535 11.117 108.84 11.5412C109.145 11.9621 109.304 12.446 109.317 12.9929H107.836ZM120.137 15.4091C120.137 16.4962 119.938 17.4309 119.54 18.2131C119.143 18.992 118.597 19.5919 117.905 20.0128C117.215 20.4304 116.431 20.6392 115.553 20.6392C114.671 20.6392 113.884 20.4304 113.192 20.0128C112.502 19.5919 111.959 18.9903 111.561 18.2081C111.163 17.4259 110.964 16.4929 110.964 15.4091C110.964 14.322 111.163 13.389 111.561 12.6101C111.959 11.8279 112.502 11.228 113.192 10.8104C113.884 10.3894 114.671 10.179 115.553 10.179C116.431 10.179 117.215 10.3894 117.905 10.8104C118.597 11.228 119.143 11.8279 119.54 12.6101C119.938 13.389 120.137 14.322 120.137 15.4091ZM118.616 15.4091C118.616 14.5805 118.481 13.8828 118.213 13.3161C117.948 12.746 117.583 12.3151 117.119 12.0234C116.658 11.7285 116.136 11.581 115.553 11.581C114.966 11.581 114.443 11.7285 113.982 12.0234C113.521 12.3151 113.157 12.746 112.888 13.3161C112.623 13.8828 112.491 14.5805 112.491 15.4091C112.491 16.2377 112.623 16.937 112.888 17.5071C113.157 18.0739 113.521 18.5047 113.982 18.7997C114.443 19.0914 114.966 19.2372 115.553 19.2372C116.136 19.2372 116.658 19.0914 117.119 18.7997C117.583 18.5047 117.948 18.0739 118.213 17.5071C118.481 16.937 118.616 16.2377 118.616 15.4091ZM122.052 20.5V10.3182H123.588V19.1776H128.202V20.5H122.052Z" fill="#A0A0A0"/>
<rect x="159" width="58" height="30" rx="6" fill="#F6F6F6"/>
<path d="M170.391 21V9.72656H172.703L176.094 18.4062H176.227L179.609 9.72656H181.922V21H180.109V12.9844H179.125L181.125 10.0391L176.844 21H175.469L171.195 10.0391L173.195 12.9844H172.203V21H170.391ZM183.867 21L187.867 9.72656H189.539V11.8203H188.938L185.977 21H183.867ZM185.883 18.0859L186.406 16.5312H191.578L192.102 18.0859H185.883ZM192.031 21L189.07 11.8203V9.72656H190.133L194.141 21H192.031ZM195.375 21L199.523 14.6016L199.055 16.2109V15.2969L195.406 9.72656H197.789L200.406 13.9688H201.336L200.023 14.7266L203.109 9.72656H205.359L201.594 15.3516V16.2656L201.117 14.6562L205.297 21H202.977L200.312 16.8516H199.391L200.719 16.1094L197.57 21H195.375Z" fill="#A0A0A0"/>
</svg>
