<svg width="47" height="21" viewBox="0 0 47 21" fill="none" xmlns="http://www.w3.org/2000/svg">
<rect width="47" height="21" rx="10" fill="#BFB9FF" fill-opacity="0.2"/>
<path d="M12.5376 8.61719C12.4912 8.183 12.2957 7.84493 11.951 7.60298C11.6096 7.36103 11.1655 7.24006 10.6186 7.24006C10.2341 7.24006 9.90436 7.29806 9.62926 7.41406C9.35417 7.53007 9.1437 7.6875 8.99787 7.88636C8.85204 8.08523 8.77746 8.31226 8.77415 8.56747C8.77415 8.77959 8.82221 8.96354 8.91832 9.11932C9.01776 9.27509 9.15199 9.40767 9.32102 9.51705C9.49006 9.62311 9.67732 9.71259 9.88281 9.78551C10.0883 9.85843 10.2955 9.91974 10.5043 9.96946L11.4588 10.2081C11.8433 10.2976 12.2128 10.4186 12.5675 10.571C12.9254 10.7235 13.2453 10.9157 13.527 11.1477C13.812 11.3797 14.0374 11.6598 14.2031 11.9879C14.3688 12.3161 14.4517 12.7005 14.4517 13.1413C14.4517 13.7379 14.2992 14.2633 13.9943 14.7173C13.6894 15.1681 13.2486 15.5211 12.6719 15.7763C12.0985 16.0282 11.4041 16.1541 10.5888 16.1541C9.79664 16.1541 9.1089 16.0315 8.52557 15.7862C7.94555 15.541 7.49148 15.183 7.16335 14.7124C6.83854 14.2417 6.66288 13.6683 6.63636 12.9922H8.45099C8.47751 13.3468 8.58688 13.6418 8.77912 13.8771C8.97135 14.1125 9.22159 14.2881 9.52983 14.4041C9.84138 14.5201 10.1894 14.5781 10.5739 14.5781C10.9749 14.5781 11.3262 14.5185 11.6278 14.3991C11.9328 14.2765 12.1714 14.1075 12.3438 13.892C12.5161 13.6733 12.6039 13.4181 12.6072 13.1264C12.6039 12.8613 12.526 12.6425 12.3736 12.4702C12.2211 12.2945 12.0073 12.1487 11.7322 12.0327C11.4605 11.9134 11.1423 11.8073 10.7777 11.7145L9.61932 11.4162C8.78078 11.2008 8.1179 10.8743 7.63068 10.4368C7.14678 9.99598 6.90483 9.41098 6.90483 8.68182C6.90483 8.08191 7.06723 7.55658 7.39205 7.10582C7.72017 6.65507 8.16596 6.3054 8.7294 6.05682C9.29285 5.80492 9.93087 5.67898 10.6435 5.67898C11.366 5.67898 11.9991 5.80492 12.5426 6.05682C13.0895 6.3054 13.5187 6.65175 13.8303 7.09588C14.1418 7.53669 14.3026 8.0438 14.3125 8.61719H12.5376ZM19.3475 16.1491C18.6017 16.1491 17.9554 15.9851 17.4086 15.657C16.8617 15.3288 16.4374 14.8698 16.1358 14.2798C15.8375 13.6899 15.6884 13.0005 15.6884 12.2116C15.6884 11.4228 15.8375 10.7318 16.1358 10.1385C16.4374 9.54522 16.8617 9.08452 17.4086 8.75639C17.9554 8.42827 18.6017 8.2642 19.3475 8.2642C20.0932 8.2642 20.7395 8.42827 21.2864 8.75639C21.8333 9.08452 22.2559 9.54522 22.5542 10.1385C22.8558 10.7318 23.0066 11.4228 23.0066 12.2116C23.0066 13.0005 22.8558 13.6899 22.5542 14.2798C22.2559 14.8698 21.8333 15.3288 21.2864 15.657C20.7395 15.9851 20.0932 16.1491 19.3475 16.1491ZM19.3574 14.7074C19.7618 14.7074 20.0998 14.5964 20.3716 14.3743C20.6434 14.1489 20.8456 13.8473 20.9782 13.4695C21.1141 13.0916 21.182 12.6707 21.182 12.2067C21.182 11.7393 21.1141 11.3168 20.9782 10.9389C20.8456 10.5578 20.6434 10.2545 20.3716 10.0291C20.0998 9.80374 19.7618 9.69105 19.3574 9.69105C18.9431 9.69105 18.5984 9.80374 18.3233 10.0291C18.0516 10.2545 17.8477 10.5578 17.7118 10.9389C17.5792 11.3168 17.513 11.7393 17.513 12.2067C17.513 12.6707 17.5792 13.0916 17.7118 13.4695C17.8477 13.8473 18.0516 14.1489 18.3233 14.3743C18.5984 14.5964 18.9431 14.7074 19.3574 14.7074ZM27.8651 16.1491C27.1193 16.1491 26.473 15.9851 25.9261 15.657C25.3793 15.3288 24.955 14.8698 24.6534 14.2798C24.3551 13.6899 24.206 13.0005 24.206 12.2116C24.206 11.4228 24.3551 10.7318 24.6534 10.1385C24.955 9.54522 25.3793 9.08452 25.9261 8.75639C26.473 8.42827 27.1193 8.2642 27.8651 8.2642C28.6108 8.2642 29.2571 8.42827 29.804 8.75639C30.3509 9.08452 30.7734 9.54522 31.0717 10.1385C31.3733 10.7318 31.5241 11.4228 31.5241 12.2116C31.5241 13.0005 31.3733 13.6899 31.0717 14.2798C30.7734 14.8698 30.3509 15.3288 29.804 15.657C29.2571 15.9851 28.6108 16.1491 27.8651 16.1491ZM27.875 14.7074C28.2794 14.7074 28.6174 14.5964 28.8892 14.3743C29.161 14.1489 29.3632 13.8473 29.4957 13.4695C29.6316 13.0916 29.6996 12.6707 29.6996 12.2067C29.6996 11.7393 29.6316 11.3168 29.4957 10.9389C29.3632 10.5578 29.161 10.2545 28.8892 10.0291C28.6174 9.80374 28.2794 9.69105 27.875 9.69105C27.4607 9.69105 27.116 9.80374 26.8409 10.0291C26.5691 10.2545 26.3653 10.5578 26.2294 10.9389C26.0968 11.3168 26.0305 11.7393 26.0305 12.2067C26.0305 12.6707 26.0968 13.0916 26.2294 13.4695C26.3653 13.8473 26.5691 14.1489 26.8409 14.3743C27.116 14.5964 27.4607 14.7074 27.875 14.7074ZM34.8514 11.5256V16H33.0517V8.36364H34.7718V9.66122H34.8613C35.037 9.23366 35.3171 8.89394 35.7015 8.64205C36.0893 8.39015 36.5682 8.2642 37.1383 8.2642C37.6653 8.2642 38.1243 8.37689 38.5154 8.60227C38.9099 8.82765 39.2148 9.15412 39.4302 9.58168C39.649 10.0092 39.7567 10.5279 39.7534 11.1378V16H37.9537V11.4162C37.9537 10.9058 37.8211 10.5064 37.5559 10.218C37.2941 9.92969 36.9312 9.78551 36.4672 9.78551C36.1523 9.78551 35.8722 9.85511 35.627 9.99432C35.385 10.1302 35.1944 10.3274 35.0552 10.5859C34.9193 10.8445 34.8514 11.1577 34.8514 11.5256Z" fill="#8F85FF"/>
</svg>
