<svg width="18" height="18" viewBox="0 0 18 18" fill="none" xmlns="http://www.w3.org/2000/svg">
<g clip-path="url(#clip0_2_3488)">
<path d="M8.99921 9C10.1038 9 10.9992 8.10457 10.9992 7C10.9992 5.89543 10.1038 5 8.99921 5C7.89464 5 6.99921 5.89543 6.99921 7C6.99921 8.10457 7.89464 9 8.99921 9Z" stroke="#A0A0A0" stroke-width="1.5" stroke-linecap="round" stroke-linejoin="round"/>
<path d="M5.80096 15.776C5.31196 15.628 4.98296 15.141 5.09196 14.641C5.48496 12.844 7.08496 11.499 8.99996 11.499C10.915 11.499 12.515 12.844 12.908 14.641C13.017 15.14 12.689 15.628 12.199 15.776C11.378 16.024 10.288 16.25 8.99996 16.25C7.71196 16.25 6.62196 16.025 5.80096 15.776Z" stroke="#A0A0A0" stroke-width="1.5" stroke-linecap="round" stroke-linejoin="round"/>
<path d="M13.75 4.75C14.5784 4.75 15.25 4.07843 15.25 3.25C15.25 2.42157 14.5784 1.75 13.75 1.75C12.9216 1.75 12.25 2.42157 12.25 3.25C12.25 4.07843 12.9216 4.75 13.75 4.75Z" stroke="#A0A0A0" stroke-width="1.5" stroke-linecap="round" stroke-linejoin="round"/>
<path d="M13.584 7.24799C13.639 7.24599 13.694 7.24399 13.75 7.24399C15.423 7.24399 16.829 8.39099 17.223 9.94099C17.353 10.452 17.012 10.961 16.505 11.108C15.862 11.294 15.048 11.46 14.102 11.493" stroke="#A0A0A0" stroke-width="1.5" stroke-linecap="round" stroke-linejoin="round"/>
<path d="M4.25 4.75C5.07843 4.75 5.75 4.07843 5.75 3.25C5.75 2.42157 5.07843 1.75 4.25 1.75C3.42157 1.75 2.75 2.42157 2.75 3.25C2.75 4.07843 3.42157 4.75 4.25 4.75Z" stroke="#A0A0A0" stroke-width="1.5" stroke-linecap="round" stroke-linejoin="round"/>
<path d="M4.41598 7.24799C4.36098 7.24599 4.30598 7.24399 4.24998 7.24399C2.57698 7.24399 1.17098 8.39099 0.776978 9.94099C0.646978 10.452 0.987978 10.961 1.49498 11.108C2.13798 11.294 2.95198 11.46 3.89798 11.493" stroke="#A0A0A0" stroke-width="1.5" stroke-linecap="round" stroke-linejoin="round"/>
</g>
<defs>
<clipPath id="clip0_2_3488">
<rect width="18" height="18" fill="white"/>
</clipPath>
</defs>
</svg>
