<svg width="24" height="24" viewBox="0 0 24 24" fill="none" xmlns="http://www.w3.org/2000/svg">
<g clip-path="url(#clip0_2_3307)">
<path d="M9.33594 9.33398C10.9928 9.33398 12.3359 7.99084 12.3359 6.33398C12.3359 4.67713 10.9928 3.33398 9.33594 3.33398C7.67908 3.33398 6.33594 4.67713 6.33594 6.33398C6.33594 7.99084 7.67908 9.33398 9.33594 9.33398Z" stroke="#FF7AF9" stroke-width="2" stroke-linecap="round" stroke-linejoin="round"/>
<path d="M14.9766 9.14732C15.2966 9.26332 15.6392 9.33398 15.9992 9.33398C17.6566 9.33398 18.9992 7.99132 18.9992 6.33398C18.9992 4.67665 17.6566 3.33398 15.9992 3.33398C15.6392 3.33398 15.2966 3.40332 14.9766 3.52065" stroke="#FF7AF9" stroke-width="2" stroke-linecap="round" stroke-linejoin="round"/>
<path d="M17.0026 20.3343H16.3359C15.2319 20.3343 14.3359 19.4383 14.3359 18.3343V17.001C14.3359 15.897 15.2319 15.001 16.3359 15.001H17.0026" stroke="#FF7AF9" stroke-width="2" stroke-linecap="round" stroke-linejoin="round"/>
<path d="M20.3359 20.3343H21.0026C22.1066 20.3343 23.0026 19.4383 23.0026 18.3343V17.001C23.0026 15.897 22.1066 15.001 21.0026 15.001H20.3359" stroke="#FF7AF9" stroke-width="2" stroke-linecap="round" stroke-linejoin="round"/>
<path d="M12.453 13.3697C11.5063 12.923 10.453 12.667 9.33699 12.667C6.47699 12.667 4.00366 14.3057 2.79566 16.6937C2.26233 17.7483 2.833 19.0363 3.95033 19.4243C5.325 19.9017 7.16099 20.335 9.33699 20.335C10.0543 20.335 10.7183 20.2763 11.357 20.1963" stroke="#FF7AF9" stroke-width="2" stroke-linecap="round" stroke-linejoin="round"/>
<path d="M17.6641 17.667H19.6641" stroke="#FF7AF9" stroke-width="2" stroke-linecap="round" stroke-linejoin="round"/>
</g>
<defs>
<clipPath id="clip0_2_3307">
<rect width="24" height="24" fill="white"/>
</clipPath>
</defs>
</svg>
