<svg width="30" height="30" viewBox="0 0 30 30" fill="none" xmlns="http://www.w3.org/2000/svg">
<circle cx="15" cy="15" r="15" fill="#B9FFEE"/>
<path d="M14.91 14.2697C14.5809 14.2697 14.3397 13.9601 14.42 13.641L15.7442 8.38183C15.8008 8.15731 16.0027 7.99994 16.2342 7.99994H21.4945C21.7735 7.99994 21.9998 8.22615 21.9998 8.5052V13.7644C21.9998 14.0434 21.7735 14.2697 21.4945 14.2697H14.91Z" fill="#232323"/>
<path d="M7.99976 13.7644C7.99976 14.0434 8.22597 14.2697 8.50502 14.2697H9.91619C10.0779 14.2697 10.2299 14.1922 10.325 14.0614L14.1457 8.80217C14.3883 8.46818 14.1497 7.99994 13.7369 7.99994H8.50502C8.22597 7.99994 7.99976 8.22615 7.99976 8.5052V13.7644Z" fill="#232323"/>
<path d="M12.0572 21.9999C12.2888 21.9999 12.4907 21.8426 12.5472 21.618L13.8714 16.3588C13.9518 16.0397 13.7105 15.7302 13.3815 15.7302H8.50502C8.22597 15.7302 7.99976 15.9564 7.99976 16.2355V21.4947C7.99976 21.7737 8.22597 21.9999 8.50502 21.9999H12.0572Z" fill="#232323"/>
<path d="M18.2521 15.9385C18.3471 15.8077 18.4991 15.7302 18.6608 15.7302H21.4945C21.7735 15.7302 21.9998 15.9564 21.9998 16.2355V21.4947C21.9998 21.7737 21.7735 21.9999 21.4945 21.9999H14.8401C14.4273 21.9999 14.1887 21.5317 14.4314 21.1977L18.2521 15.9385Z" fill="#232323"/>
</svg>
