<svg width="51" height="20" viewBox="0 0 51 20" fill="none" xmlns="http://www.w3.org/2000/svg">
<rect y="0.5" width="51" height="19" rx="6" fill="#EFEFEF"/>
<path d="M9.53267 15.5909V4.68182H10.2315V15.5909H9.53267ZM11.7188 8.06534C11.6733 7.66193 11.4858 7.34943 11.1562 7.12784C10.8267 6.90341 10.4119 6.79119 9.91193 6.79119C9.55398 6.79119 9.24432 6.84801 8.98295 6.96165C8.72159 7.07244 8.51847 7.22585 8.37358 7.42188C8.23153 7.61506 8.16051 7.83523 8.16051 8.08239C8.16051 8.28977 8.20881 8.46875 8.3054 8.61932C8.40483 8.76989 8.53409 8.89631 8.69318 8.99858C8.85511 9.09801 9.02841 9.18182 9.21307 9.25C9.39773 9.31534 9.57528 9.36932 9.74574 9.41193L10.598 9.63352C10.8764 9.7017 11.1619 9.79403 11.4545 9.91051C11.7472 10.027 12.0185 10.1804 12.2685 10.3707C12.5185 10.5611 12.7202 10.7969 12.8736 11.0781C13.0298 11.3594 13.108 11.696 13.108 12.0881C13.108 12.5824 12.9801 13.0213 12.7244 13.4048C12.4716 13.7884 12.1037 14.0909 11.6207 14.3125C11.1406 14.5341 10.5597 14.6449 9.87784 14.6449C9.22443 14.6449 8.65909 14.5412 8.18182 14.3338C7.70455 14.1264 7.33097 13.8324 7.06108 13.4517C6.79119 13.0682 6.64205 12.6136 6.61364 12.0881H7.93466C7.96023 12.4034 8.0625 12.6662 8.24148 12.8764C8.4233 13.0838 8.65483 13.2386 8.93608 13.3409C9.22017 13.4403 9.53125 13.4901 9.86932 13.4901C10.2415 13.4901 10.5724 13.4318 10.8622 13.3153C11.1548 13.196 11.3849 13.0312 11.5526 12.821C11.7202 12.608 11.804 12.3594 11.804 12.0753C11.804 11.8168 11.7301 11.6051 11.5824 11.4403C11.4375 11.2756 11.2401 11.1392 10.9901 11.0312C10.7429 10.9233 10.4631 10.8281 10.1506 10.7457L9.11932 10.4645C8.42045 10.2741 7.86648 9.99432 7.45739 9.625C7.05114 9.25568 6.84801 8.76705 6.84801 8.15909C6.84801 7.65625 6.98438 7.21733 7.2571 6.84233C7.52983 6.46733 7.89915 6.17614 8.36506 5.96875C8.83097 5.75852 9.35653 5.65341 9.94176 5.65341C10.5327 5.65341 11.054 5.7571 11.5057 5.96449C11.9602 6.17188 12.3182 6.45739 12.5795 6.82102C12.8409 7.18182 12.9773 7.59659 12.9886 8.06534H11.7188ZM15.4442 5.77273L17.8732 12.8807H17.9712L20.4002 5.77273H21.8235L18.6829 14.5H17.1616L14.021 5.77273H15.4442ZM30.2312 10.1364C30.2312 11.0682 30.0607 11.8693 29.7198 12.5398C29.3789 13.2074 28.9116 13.7216 28.3178 14.0824C27.7269 14.4403 27.055 14.6193 26.3022 14.6193C25.5465 14.6193 24.8718 14.4403 24.2781 14.0824C23.6871 13.7216 23.2212 13.206 22.8803 12.5355C22.5394 11.8651 22.369 11.0653 22.369 10.1364C22.369 9.20455 22.5394 8.40483 22.8803 7.73722C23.2212 7.06676 23.6871 6.55256 24.2781 6.1946C24.8718 5.83381 25.5465 5.65341 26.3022 5.65341C27.055 5.65341 27.7269 5.83381 28.3178 6.1946C28.9116 6.55256 29.3789 7.06676 29.7198 7.73722C30.0607 8.40483 30.2312 9.20455 30.2312 10.1364ZM28.9272 10.1364C28.9272 9.42614 28.8121 8.82812 28.582 8.34233C28.3548 7.85369 28.0423 7.48438 27.6445 7.23438C27.2496 6.98153 26.8022 6.85511 26.3022 6.85511C25.7994 6.85511 25.3505 6.98153 24.9556 7.23438C24.5607 7.48438 24.2482 7.85369 24.0181 8.34233C23.7908 8.82812 23.6772 9.42614 23.6772 10.1364C23.6772 10.8466 23.7908 11.446 24.0181 11.9347C24.2482 12.4205 24.5607 12.7898 24.9556 13.0426C25.3505 13.2926 25.7994 13.4176 26.3022 13.4176C26.8022 13.4176 27.2496 13.2926 27.6445 13.0426C28.0423 12.7898 28.3548 12.4205 28.582 11.9347C28.8121 11.446 28.9272 10.8466 28.9272 10.1364ZM31.8729 14.5V5.77273H33.1896V13.3665H37.1442V14.5H31.8729ZM37.0792 6.90625V5.77273H43.8335V6.90625H41.1104V14.5H39.7979V6.90625H37.0792Z" fill="#A0A0A0"/>
</svg>
