<svg width="18" height="18" viewBox="0 0 18 18" fill="none" xmlns="http://www.w3.org/2000/svg">
<path d="M8.88458 8.06107C8.4615 8.06107 8.15132 7.66311 8.25462 7.25283L9.95719 0.491005C10.0299 0.202332 10.2895 0 10.5871 0H17.3504C17.7092 0 18 0.290846 18 0.649623V7.41145C18 7.77023 17.7092 8.06107 17.3504 8.06107H8.88458Z" fill="#1B1B1C"/>
<path d="M0 7.41145C0 7.77023 0.290846 8.06107 0.649623 8.06107H2.46399C2.67195 8.06107 2.86733 7.96151 2.98956 7.79327L7.90189 1.03144C8.21385 0.602022 7.90709 0 7.37632 0H0.649623C0.290846 0 0 0.290846 0 0.649623V7.41145Z" fill="#1B1B1C"/>
<path d="M5.21678 18C5.51446 18 5.77405 17.7977 5.84674 17.509L7.54931 10.7472C7.65261 10.3369 7.34242 9.93892 6.91935 9.93892H0.649623C0.290846 9.93892 0 10.2298 0 10.5885V17.3504C0 17.7092 0.290846 18 0.649623 18H5.21678Z" fill="#1B1B1C"/>
<path d="M13.1815 10.2067C13.3038 10.0385 13.4992 9.93892 13.7071 9.93892H17.3504C17.7092 9.93892 18 10.2298 18 10.5885V17.3504C18 17.7092 17.7092 18 17.3504 18H8.79479C8.26401 18 7.95725 17.398 8.26922 16.9686L13.1815 10.2067Z" fill="#1B1B1C"/>
</svg>
