<svg width="24" height="24" viewBox="0 0 24 24" fill="none" xmlns="http://www.w3.org/2000/svg">
<path d="M2.32812 11.0007C2.32812 9.52732 3.52146 8.33398 4.99479 8.33398H18.9948C20.4681 8.33398 21.6615 9.52732 21.6615 11.0007" stroke="#A0A0A0" stroke-width="2" stroke-linecap="round" stroke-linejoin="round"/>
<path d="M21.6615 12.334H16.3281C15.5921 12.334 14.9948 12.9313 14.9948 13.6673V14.334C14.9948 15.07 14.3975 15.6673 13.6615 15.6673H10.3281C9.59213 15.6673 8.99479 15.07 8.99479 14.334V13.6673C8.99479 12.9313 8.39746 12.334 7.66146 12.334H2.32812" stroke="#A0A0A0" stroke-width="2" stroke-linecap="round" stroke-linejoin="round"/>
<path d="M18.9948 4.33398H4.99479C3.52203 4.33398 2.32812 5.52789 2.32812 7.00065V17.0007C2.32812 18.4734 3.52203 19.6673 4.99479 19.6673H18.9948C20.4676 19.6673 21.6615 18.4734 21.6615 17.0007V7.00065C21.6615 5.52789 20.4676 4.33398 18.9948 4.33398Z" stroke="#A0A0A0" stroke-width="2" stroke-linecap="round" stroke-linejoin="round"/>
</svg>
